<svg width="20" height="20" viewBox="0 0 20 20" fill="none" xmlns="http://www.w3.org/2000/svg">
<path fill-rule="evenodd" clip-rule="evenodd" d="M4.37477 7.5C4.37477 6.00816 4.96741 4.57742 6.0223 3.52252C7.07719 2.46763 8.50793 1.875 9.99977 1.875C11.4916 1.875 12.9224 2.46763 13.9773 3.52252C15.0321 4.57742 15.6248 6.00816 15.6248 7.5V8.125C15.6248 9.89417 16.2914 11.5058 17.3898 12.725C17.4582 12.8008 17.507 12.8923 17.5319 12.9913C17.5568 13.0904 17.557 13.194 17.5326 13.2932C17.5082 13.3923 17.4599 13.484 17.3918 13.5601C17.3238 13.6363 17.2381 13.6946 17.1423 13.73C15.8556 14.205 14.5089 14.555 13.1164 14.7658C13.1478 15.1943 13.0905 15.6246 12.9481 16.0299C12.8056 16.4352 12.5812 16.8068 12.2887 17.1214C11.9962 17.4361 11.642 17.6871 11.2482 17.8587C10.8544 18.0303 10.4294 18.1189 9.99977 18.1189C9.57018 18.1189 9.14519 18.0303 8.75137 17.8587C8.35754 17.6871 8.00333 17.4361 7.71085 17.1214C7.41838 16.8068 7.19392 16.4352 7.0515 16.0299C6.90908 15.6246 6.85176 15.1943 6.88311 14.7658C5.50948 14.5577 4.1606 14.2103 2.85727 13.7292C2.76155 13.6938 2.67594 13.6356 2.60791 13.5595C2.53988 13.4835 2.4915 13.3919 2.46701 13.2929C2.44251 13.1938 2.44264 13.0903 2.46738 12.9913C2.49212 12.8923 2.54072 12.8009 2.60894 12.725C3.74795 11.4639 4.37734 9.82433 4.37477 8.125V7.5ZM8.12644 14.9167C8.11578 15.1693 8.15634 15.4215 8.24568 15.6581C8.33502 15.8947 8.47129 16.1107 8.64629 16.2933C8.8213 16.4758 9.03142 16.6211 9.26402 16.7203C9.49662 16.8196 9.74689 16.8707 9.99977 16.8707C10.2527 16.8707 10.5029 16.8196 10.7355 16.7203C10.9681 16.6211 11.1783 16.4758 11.3533 16.2933C11.5283 16.1107 11.6645 15.8947 11.7539 15.6581C11.8432 15.4215 11.8838 15.1693 11.8731 14.9167C10.6267 15.0289 9.37281 15.0289 8.12644 14.9167Z" fill="#A6A6A6"/>
</svg>
