<svg width="20" height="20" viewBox="0 0 20 20" fill="none" xmlns="http://www.w3.org/2000/svg">
<path d="M10.5 3H5.5C4.1 3 3 4.1 3 5.5V14.5C3 15.9 4.1 17 5.5 17H10.5C11.9 17 13 15.9 13 14.5V5.5C13 4.1 11.9 3 10.5 3ZM6 6.5C6 6.8 5.8 7 5.5 7C5.2 7 5 6.8 5 6.5V5.5C5 5.2 5.2 5 5.5 5C5.8 5 6 5.2 6 5.5V6.5ZM9.65 10.65C9.45 10.85 9.15 11 8.85 11C8.75 11 8.6 11 8.5 10.95V11.5C8.8 11.5 9 11.7 9 12C9 12.3 8.8 12.5 8.5 12.5H7.5C7.2 12.5 7 12.3 7 12C7 11.7 7.2 11.5 7.5 11.5V10.95C7.4 11 7.25 11 7.15 11C6.85 11 6.55 10.9 6.35 10.65C5.9 10.2 5.9 9.45 6.35 9L7.65 7.65C7.85 7.45 8.2 7.45 8.35 7.65L9.65 9C10.1 9.45 10.1 10.2 9.65 10.65ZM11 14.5C11 14.8 10.8 15 10.5 15C10.2 15 10 14.8 10 14.5V13.5C10 13.2 10.2 13 10.5 13C10.8 13 11 13.2 11 13.5V14.5Z" fill="#A6A6A6"/>
<path d="M16.25 6.3002L14 4.9502V14.9002L17.1 9.7502C17.8 8.5502 17.45 7.0002 16.25 6.3002Z" fill="#A6A6A6"/>
</svg>
