<svg width="20" height="20" viewBox="0 0 20 20" fill="none" xmlns="http://www.w3.org/2000/svg">
<g clip-path="url(#clip0_3176_931)">
<path d="M10.0002 2.00049C5.58903 2.00049 2 5.58877 2 10.0002C2 14.4114 5.58903 18 10.0002 18C14.4112 18 18 14.4115 18 10.0002C18 5.58877 14.4112 2.00049 10.0002 2.00049ZM10.0002 16.4001C6.47147 16.4001 3.60019 13.5288 3.60019 10.0002C3.60019 6.47174 6.47144 3.60018 10.0002 3.60018C13.529 3.60018 16.3998 6.47174 16.3998 10.0002C16.3998 13.5288 13.529 16.4001 10.0002 16.4001Z" fill="#A6A6A6"/>
<path d="M10.0006 5.2002C7.35376 5.2002 5.2002 7.35348 5.2002 10.0003C5.2002 12.6469 7.35373 14.7999 10.0006 14.7999C12.6469 14.7999 14.8004 12.6469 14.8004 10.0003C14.8004 7.35348 12.6469 5.2002 10.0006 5.2002ZM10.0006 13.2004C8.23595 13.2004 6.80041 11.7649 6.80041 10.0003C6.80041 8.23616 8.23595 6.80013 10.0006 6.80013C11.7649 6.80013 13.2002 8.23613 13.2002 10.0003C13.2002 11.7649 11.7649 13.2004 10.0006 13.2004Z" fill="#A6A6A6"/>
<path d="M9.99988 8.40039C9.11591 8.40039 8.39941 9.11664 8.39941 10.0001C8.39941 10.8836 9.11591 11.5998 9.99988 11.5998C10.8836 11.5998 11.5998 10.8835 11.5998 10.0001C11.5999 9.11667 10.8836 8.40039 9.99988 8.40039Z" fill="#A6A6A6"/>
</g>
<defs>
<clipPath id="clip0_3176_931">
<rect width="16" height="16" fill="white" transform="translate(2 2)"/>
</clipPath>
</defs>
</svg>
