<svg width="20" height="20" viewBox="0 0 20 20" fill="none" xmlns="http://www.w3.org/2000/svg">
<path d="M10.7273 15.32H3.70288V4.68H10.7273V8.53H12.4302V5C12.4302 3.89543 11.5347 3 10.4302 3H4C2.89543 3 2 3.89543 2 5V15C2 16.1046 2.89543 17 4 17H10.4302C11.5347 17 12.4302 16.1046 12.4302 15V11.47H10.7273V15.32Z" fill="#DB3E3E"/>
<path d="M14.7539 10.8401L13.5122 12.0651L14.7184 13.2551L17.4147 10.5951C17.7395 10.2649 17.7395 9.73529 17.4147 9.40512L14.7184 6.74512L13.5122 7.93512L14.7539 9.16012H9.02441V10.8401H14.7539Z" fill="#DB3E3E"/>
</svg>
