<svg width="20" height="20" viewBox="0 0 20 20" fill="none" xmlns="http://www.w3.org/2000/svg">
<path fill-rule="evenodd" clip-rule="evenodd" d="M4.04 2.30917C6.01344 2.0195 8.00541 1.87439 10 1.875C12.025 1.875 14.0142 2.02334 15.96 2.30834C17.6083 2.55167 18.75 3.995 18.75 5.61667V10.6333C18.75 12.255 17.6083 13.6983 15.96 13.9417C14.9986 14.0826 14.0324 14.189 13.0633 14.2608C13.014 14.2641 12.9661 14.2785 12.9232 14.3031C12.8803 14.3276 12.8436 14.3616 12.8158 14.4025L10.52 17.8467C10.4629 17.9323 10.3856 18.0025 10.2949 18.051C10.2042 18.0995 10.1029 18.1249 10 18.1249C9.89712 18.1249 9.79582 18.0995 9.70511 18.051C9.6144 18.0025 9.53708 17.9323 9.48 17.8467L7.18417 14.4025C7.1564 14.3616 7.11967 14.3276 7.07678 14.3031C7.0339 14.2785 6.98598 14.2641 6.93667 14.2608C5.9676 14.1887 5.00143 14.082 4.04 13.9408C2.39167 13.6992 1.25 12.2542 1.25 10.6325V5.6175C1.25 3.99584 2.39167 2.55084 4.04 2.30917Z" fill="#A6A6A6"/>
</svg>
