<svg width="20" height="20" viewBox="0 0 20 20" fill="none" xmlns="http://www.w3.org/2000/svg">
<path d="M15.1466 6.95071C17.0632 6.28212 18.2583 4.70226 18.2583 4.70226C18.2583 4.70226 16.8251 4.33217 15.1974 4.66586L15.2602 2L13.757 4.25815L14.221 4.26058L14.2899 4.92674C12.4543 5.62081 11.3172 7.12422 11.3172 7.12422C11.3172 7.12422 12.8313 7.51494 14.5159 7.13029L14.8421 10.3046C13.7594 10.9586 12.2731 11.5689 10.2441 11.9402V18L17.2384 10.6565L17.5985 7.38632C17.5985 7.38632 17.1296 8.83877 15.0669 10.1662L15.143 6.95313C15.143 6.95313 15.1454 6.95313 15.1466 6.95313V6.95071Z" fill="white"/>
<path d="M4.85286 6.95071C2.93632 6.28212 1.74121 4.70226 1.74121 4.70226C1.74121 4.70226 3.17438 4.33217 4.8021 4.66586L4.73927 2L6.24252 4.25815L5.7785 4.26058L5.70962 4.92674C7.54519 5.62081 8.6823 7.12422 8.6823 7.12422C8.6823 7.12422 7.16816 7.51494 5.48364 7.13029L5.15737 10.3046C6.24011 10.9586 7.72645 11.5689 9.75536 11.9402V18L2.76111 10.6565L2.401 7.38632C2.401 7.38632 2.86986 8.83877 4.93261 10.1662L4.85648 6.95313C4.85648 6.95313 4.85406 6.95313 4.85286 6.95313V6.95071Z" fill="white"/>
</svg>
