<svg width="20" height="20" viewBox="0 0 20 20" fill="none" xmlns="http://www.w3.org/2000/svg">
<path d="M5.97778 17C4.8803 17 3.94311 16.604 3.16622 15.8121C2.38874 15.0207 2 14.0661 2 12.9481C2 11.8477 2.37748 10.9042 3.13244 10.1177C3.88741 9.33118 4.80504 8.92584 5.88533 8.90169C5.99911 8.90169 6.11319 8.91045 6.22756 8.92795C6.34133 8.94485 6.45511 8.96508 6.56889 8.98862L4.16622 4.05213C4.04059 3.80826 4.04593 3.57194 4.18222 3.34316C4.31852 3.11439 4.52296 3 4.79556 3H6.99556C7.26815 3 7.51852 3.07334 7.74667 3.22002C7.97541 3.3661 8.15407 3.56107 8.28267 3.80494L10 7.31807L11.7156 3.80494C11.8447 3.56107 12.0237 3.3661 12.2524 3.22002C12.4806 3.07334 12.731 3 13.0036 3H15.1884C15.461 3 15.6681 3.11469 15.8098 3.34407C15.9514 3.57224 15.9594 3.80826 15.8338 4.05213L13.4533 8.92614C13.5559 8.9026 13.661 8.88509 13.7689 8.87363C13.8773 8.86155 13.9884 8.85552 14.1022 8.85552C15.1908 8.88389 16.1126 9.29134 16.8676 10.0779C17.6225 10.8644 18 11.8136 18 12.9255C18 14.0585 17.6113 15.0207 16.8338 15.8121C16.0569 16.604 15.1123 17 14 17C13.8323 17 13.661 16.9903 13.4862 16.971C13.3114 16.9523 13.1458 16.9161 12.9893 16.8624C13.6904 16.5515 14.1822 16.0233 14.4649 15.2778C14.7476 14.5318 14.8889 13.7476 14.8889 12.9255C14.8889 11.5359 14.4151 10.3586 13.4676 9.39335C12.5194 8.42815 11.3636 7.94554 10 7.94554C8.63585 7.94554 7.48 8.42815 6.53244 9.39335C5.58489 10.3592 5.11111 11.5365 5.11111 12.9255C5.11111 13.7543 5.24148 14.5517 5.50222 15.3177C5.76296 16.0843 6.2637 16.5992 7.00444 16.8624C6.83733 16.9161 6.66904 16.9523 6.49956 16.971C6.33067 16.9903 6.15674 17 5.97778 17ZM10 17C8.88889 17 7.94459 16.604 7.16711 15.8121C6.38963 15.0201 6.00059 14.0579 6 12.9255C6 11.7937 6.38904 10.8318 7.16711 10.0398C7.94518 9.24788 8.88948 8.85159 10 8.85099C11.1111 8.85099 12.0557 9.24727 12.8338 10.0398C13.6119 10.8324 14.0006 11.7943 14 12.9255C14 14.0573 13.6113 15.0195 12.8338 15.8121C12.0563 16.6046 11.1117 17.0006 10 17ZM10 13.9215L10.952 14.6549C11.029 14.7068 11.1007 14.7077 11.1671 14.6576C11.2335 14.6069 11.2519 14.5405 11.2222 14.4584L10.8684 13.2515L11.8036 12.5633C11.8806 12.5108 11.9043 12.4444 11.8747 12.3641C11.845 12.2838 11.7881 12.2434 11.704 12.2428H10.5422L10.1707 10.9806C10.141 10.8979 10.0841 10.8566 10 10.8566C9.91585 10.8566 9.85896 10.8979 9.82933 10.9806L9.45778 12.2428H8.296C8.21126 12.2428 8.15407 12.2832 8.12444 12.3641C8.09482 12.445 8.11881 12.5114 8.19644 12.5633L9.13156 13.2515L8.77778 14.4575C8.74815 14.5402 8.76652 14.6066 8.83289 14.6567C8.89867 14.7074 8.97037 14.7068 9.048 14.6549L10 13.9215Z" fill="white"/>
</svg>
