<svg width="20" height="20" viewBox="0 0 20 20" fill="none" xmlns="http://www.w3.org/2000/svg">
<g clip-path="url(#clip0_3178_1083)">
<path d="M5.6474 14.8271C6.68395 15.7624 8.0232 16.3685 9.50049 16.4809L9.50063 17.9844C7.60942 17.8679 5.89597 17.0943 4.58577 15.8891L5.6474 14.8271ZM14.4916 14.6985L15.4751 15.6818C15.5018 15.7084 15.5307 15.7314 15.5614 15.7508C14.2338 17.0349 12.4628 17.8634 10.5004 17.9844L10.5006 16.4808C12.0443 16.3633 13.4373 15.7066 14.4916 14.6985ZM10.0003 4.49979C13.0378 4.49979 15.5003 6.96222 15.5003 9.99979C15.5003 13.0374 13.0378 15.4998 10.0003 15.4998C6.96271 15.4998 4.50027 13.0374 4.50027 9.99979C4.50027 6.96222 6.96271 4.49979 10.0003 4.49979ZM3.51924 10.5001C3.62282 11.8609 4.14542 13.1046 4.9583 14.1024L3.89349 15.168C2.81318 13.8927 2.12513 12.2746 2.01566 10.4999L3.51924 10.5001ZM17.9849 10.4999C17.8795 12.2085 17.2378 13.772 16.2257 15.0242C16.2125 15.007 16.198 14.9904 16.1823 14.9747L15.1604 13.9529C15.9057 12.9815 16.3828 11.7937 16.4813 10.5001L17.9849 10.4999ZM9.29317 7.17136C8.70738 6.58557 7.75763 6.58557 7.17184 7.17136C6.58606 7.75714 6.58606 8.70689 7.17184 9.29268C7.63367 9.75451 8.32173 9.85224 8.8793 9.58586L9.29352 9.99944L8.8793 10.4137C8.32173 10.1473 7.63367 10.2451 7.17184 10.7069C6.58606 11.2927 6.58606 12.2424 7.17184 12.8282C7.75763 13.414 8.70738 13.414 9.29317 12.8282C9.75487 12.3665 9.85267 11.6787 9.58658 11.1212L10.0006 10.7065L10.4142 11.1208C10.1478 11.6783 10.2456 12.3664 10.7074 12.8282C11.2932 13.414 12.2429 13.414 12.8287 12.8282C13.4145 12.2424 13.4145 11.2927 12.8287 10.7069C12.367 10.2452 11.6792 10.1474 11.1217 10.4135L10.7077 9.99944L11.1217 9.58609C11.6792 9.85219 12.367 9.75438 12.8287 9.29268C13.4145 8.70689 13.4145 7.75714 12.8287 7.17136C12.2429 6.58557 11.2932 6.58557 10.7074 7.17136C10.2456 7.63319 10.1478 8.32124 10.4142 8.87881L10.0006 9.29233L9.58658 8.87834C9.85267 8.32085 9.75487 7.63306 9.29317 7.17136ZM7.87895 11.414C8.07421 11.2187 8.3908 11.2187 8.58606 11.414C8.78132 11.6093 8.78132 11.9258 8.58606 12.1211C8.3908 12.3164 8.07421 12.3164 7.87895 12.1211C7.68369 11.9258 7.68369 11.6093 7.87895 11.414ZM11.4145 11.414C11.6098 11.2187 11.9263 11.2187 12.1216 11.414C12.3169 11.6093 12.3169 11.9258 12.1216 12.1211C11.9263 12.3164 11.6098 12.3164 11.4145 12.1211C11.2192 11.9258 11.2192 11.6093 11.4145 11.414ZM16.0161 4.72617C17.1488 6.01722 17.8725 7.67598 17.9849 9.50014L16.4814 9.5C16.3741 8.08976 15.8169 6.80531 14.9529 5.7899L16.0161 4.72617ZM3.89349 4.83162L4.9583 5.8972C4.14532 6.89513 3.62268 8.13899 3.5192 9.5L2.01562 9.50014C2.125 7.72528 2.81307 6.10698 3.89349 4.83162ZM7.87895 7.87846C8.07421 7.6832 8.3908 7.6832 8.58606 7.87846C8.78132 8.07373 8.78132 8.39031 8.58606 8.58557C8.3908 8.78083 8.07421 8.78083 7.87895 8.58557C7.68369 8.39031 7.68369 8.07373 7.87895 7.87846ZM11.4145 7.87846C11.6098 7.6832 11.9263 7.6832 12.1216 7.87846C12.3169 8.07373 12.3169 8.39031 12.1216 8.58557C11.9263 8.78083 11.6098 8.78083 11.4145 8.58557C11.2192 8.39031 11.2192 8.07373 11.4145 7.87846ZM9.50063 2.01514L9.50049 3.51871C8.02344 3.63102 6.68438 4.23699 5.6479 5.172L4.58577 4.11049C5.89597 2.90529 7.60942 2.13168 9.50063 2.01514ZM10.5004 2.01517C12.3423 2.12878 14.0155 2.86562 15.3118 4.01738L14.2486 5.08011C13.2274 4.19747 11.9285 3.62744 10.5006 3.51875L10.5004 2.01517Z" fill="#A6A6A6"/>
</g>
<defs>
<clipPath id="clip0_3178_1083">
<rect width="16" height="16" fill="white" transform="translate(2 2)"/>
</clipPath>
</defs>
</svg>
