<svg width="20" height="20" viewBox="0 0 20 20" fill="none" xmlns="http://www.w3.org/2000/svg">
<path d="M16.9 5.10007L15.4 3.15007C15.25 3.00007 15 2.95007 14.8 3.05007L14.2 3.35007C12.75 4.05007 11.15 4.20007 9.6 3.75007C8.95 3.55007 8.25 3.50007 7.6 3.50007H4.5C4.2 3.50007 4 3.70007 4 4.00007V9.80007C4 10.1001 4.2 10.3001 4.5 10.3001H6.5C6.8 10.3001 7 10.1001 7 9.80007C7 9.00007 7.65 8.35007 8.5 8.35007H9.95L9.2 9.25007C7.45 11.3501 6.2 13.7501 5.5 16.4001C5.5 16.5001 5.5 16.7001 5.6 16.8001C5.7 16.9001 5.85 17.0001 6 17.0001H12.5C12.8 17.0001 13 16.8001 13 16.5001C13 13.7501 13.75 11.0501 15.15 8.65007L16.9 5.65007C17.05 5.50007 17 5.30007 16.9 5.10007Z" fill="#A6A6A6"/>
</svg>
