<svg width="20" height="20" viewBox="0 0 20 20" fill="none" xmlns="http://www.w3.org/2000/svg">
<path fill-rule="evenodd" clip-rule="evenodd" d="M16.5585 9.4177L16.4057 11.0412C16.1539 13.7163 16.028 15.0538 15.2396 15.8603C14.4512 16.6668 13.2695 16.6668 10.9063 16.6668H9.09307C6.72979 16.6668 5.54815 16.6668 4.75973 15.8603C3.97133 15.0538 3.84544 13.7163 3.59367 11.0412L3.44088 9.4177C3.32087 8.14263 3.26087 7.50509 3.479 7.24154C3.59699 7.09898 3.75745 7.01163 3.929 6.99656C4.24613 6.96871 4.64439 7.4221 5.44092 8.32888C5.85285 8.79783 6.05882 9.0323 6.28859 9.06863C6.4159 9.0887 6.54562 9.06803 6.66318 9.0089C6.87535 8.9021 7.01681 8.61224 7.29972 8.03251L8.79094 4.97674C9.32554 3.88124 9.59287 3.3335 9.99967 3.3335C10.4065 3.3335 10.6738 3.88124 11.2084 4.97673L12.6996 8.0325C12.9825 8.61224 13.124 8.9021 13.3361 9.0089C13.4537 9.06803 13.5835 9.0887 13.7107 9.06863C13.9405 9.0323 14.1465 8.79783 14.5584 8.32888C15.3549 7.4221 15.7532 6.96871 16.0703 6.99656C16.2419 7.01163 16.4023 7.09898 16.5203 7.24154C16.7385 7.50509 16.6785 8.14263 16.5585 9.4177ZM10.6346 10.4662L10.5691 10.3486C10.3157 9.89416 10.1891 9.66696 9.99967 9.66696C9.81027 9.66696 9.68361 9.89416 9.43027 10.3486L9.36474 10.4662C9.29281 10.5953 9.25681 10.6599 9.20067 10.7025C9.14454 10.7451 9.07467 10.7609 8.93487 10.7926L8.80761 10.8214C8.31565 10.9326 8.06968 10.9883 8.01116 11.1765C7.95264 11.3647 8.12032 11.5608 8.45569 11.9529L8.54246 12.0544C8.63776 12.1658 8.68541 12.2216 8.70687 12.2905C8.72827 12.3594 8.72107 12.4338 8.70667 12.5824L8.69354 12.7178C8.64285 13.241 8.6175 13.5027 8.77067 13.619C8.92394 13.7353 9.15421 13.6292 9.61481 13.4172L9.73394 13.3623C9.86487 13.302 9.93027 13.2719 9.99967 13.2719C10.0691 13.2719 10.1345 13.302 10.2654 13.3623L10.3845 13.4172C10.8451 13.6292 11.0754 13.7353 11.2287 13.619C11.3819 13.5027 11.3565 13.241 11.3058 12.7178L11.2927 12.5824C11.2783 12.4338 11.2711 12.3594 11.2925 12.2905C11.3139 12.2216 11.3616 12.1658 11.4569 12.0544L11.5437 11.9529C11.879 11.5608 12.0467 11.3647 11.9882 11.1765C11.9297 10.9883 11.6837 10.9326 11.1917 10.8214L11.0645 10.7926C10.9247 10.7609 10.8548 10.7451 10.7987 10.7025C10.7425 10.6599 10.7065 10.5953 10.6346 10.4662Z" fill="#A6A6A6"/>
</svg>
