<svg width="20" height="20" viewBox="0 0 20 20" fill="none" xmlns="http://www.w3.org/2000/svg">
<g clip-path="url(#clip0_3151_7123)">
<path fill-rule="evenodd" clip-rule="evenodd" d="M13.8293 11.7258C13.8293 11.7258 15.2466 13.8958 15.2466 15.3365C15.2466 16.3478 14.4253 17.1698 13.4133 17.1698C12.4013 17.1698 11.58 16.3478 11.58 15.3365C11.58 13.8958 12.9973 11.7258 12.9973 11.7258C13.09 11.5865 13.246 11.5032 13.4133 11.5032C13.5806 11.5032 13.7366 11.5865 13.8293 11.7258Z" fill="#A6A6A6"/>
<path fill-rule="evenodd" clip-rule="evenodd" d="M14.7167 9.25391C15.99 9.53324 16.6453 10.4279 16.9913 11.0839C16.998 11.0979 17.0047 11.1112 17.0107 11.1252C17.138 11.4326 17.104 11.7839 16.9193 12.0606C16.734 12.3372 16.4233 12.5032 16.0907 12.5032H14.5693L14.8907 10.8986C14.9053 10.8232 14.9133 10.7466 14.9133 10.6699C14.9133 10.1792 14.8447 9.70391 14.7167 9.25391Z" fill="#A6A6A6"/>
<path fill-rule="evenodd" clip-rule="evenodd" d="M4.63466 9.66459C4.30466 9.33059 3.93732 8.91126 3.66866 8.47326C3.35399 7.95926 3.17999 7.41459 3.25199 6.92926C3.39999 5.93393 3.90866 5.52126 4.62732 5.24926C5.00266 5.10659 5.44866 5.01059 5.92999 4.85926C6.44266 4.69793 6.51132 4.38393 6.64732 4.10859C6.81732 3.76326 7.03266 3.44059 7.54266 3.21326C8.14999 2.94193 8.67932 3.04326 9.17132 3.22593C9.48199 3.34059 9.76199 3.51926 10.0527 3.50393C10.2753 3.49126 10.3693 3.38259 10.496 3.28726C10.752 3.09459 11.056 2.89126 11.7053 2.83793C12.3347 2.78659 12.6327 2.97926 12.8667 3.22459C12.9473 3.30993 13.0187 3.40659 13.094 3.50659C13.192 3.63593 13.3033 3.77926 13.56 3.85859C13.9213 3.96926 14.29 3.99859 14.628 4.07526C15.308 4.22993 15.8953 4.52193 16.2213 5.51326C16.4373 6.16993 16.2353 6.90726 15.7667 7.52726C15.434 7.96726 14.9707 8.33859 14.4707 8.57659C13.6667 6.76659 11.8533 5.50326 9.74666 5.50326C7.62999 5.50326 5.80866 6.77859 5.01066 8.60193C4.99932 8.62859 4.98866 8.65593 4.97932 8.68326L4.63466 9.66459Z" fill="#A6A6A6"/>
<path fill-rule="evenodd" clip-rule="evenodd" d="M11.6513 17.1093C11.4893 17.1973 11.2913 17.1893 11.136 17.0859L9.41335 15.9373L7.69068 17.0859C7.49201 17.2179 7.22801 17.1919 7.05935 17.0233L5.98135 15.9446L3.63668 17.1166C3.45468 17.2079 3.23535 17.1793 3.08268 17.0446C2.93001 16.9099 2.87401 16.6966 2.94135 16.5039L5.60801 8.90392C5.61201 8.89259 5.61668 8.88059 5.62201 8.86926C6.31668 7.28059 7.90268 6.16992 9.74668 6.16992C12.23 6.16992 14.2467 8.18592 14.2467 10.6699C14.2467 10.7026 14.2433 10.7353 14.2367 10.7679L14.168 11.1133C13.9593 10.9366 13.6933 10.8366 13.4133 10.8366C13.0233 10.8366 12.6587 11.0313 12.4427 11.3559C12.4413 11.3573 12.44 11.3593 12.4393 11.3613C12.4393 11.3613 10.9133 13.7553 10.9133 15.3366C10.9133 16.0293 11.1953 16.6566 11.6513 17.1093ZM11.2467 9.00326C10.9707 9.00326 10.7467 9.22726 10.7467 9.50326C10.7467 9.77926 10.9707 10.0033 11.2467 10.0033C11.5227 10.0033 11.7467 9.77926 11.7467 9.50326C11.7467 9.22726 11.5227 9.00326 11.2467 9.00326Z" fill="#A6A6A6"/>
</g>
<defs>
<clipPath id="clip0_3151_7123">
<rect width="16" height="16" fill="white" transform="translate(2 2)"/>
</clipPath>
</defs>
</svg>
