<svg width="20" height="20" viewBox="0 0 20 20" fill="none" xmlns="http://www.w3.org/2000/svg">
<g clip-path="url(#clip0_3151_7109)">
<path d="M6.06994 6.3208L4.68377 6.42789C4.29805 6.45771 3.95452 6.65986 3.74121 6.98251L2.14257 9.40037C1.98079 9.64506 1.95507 9.95127 2.07373 10.2195C2.19241 10.4878 2.43632 10.6747 2.72616 10.7196L3.99537 10.9162C4.29227 9.34056 5.00302 7.76882 6.06994 6.3208Z" fill="url(#paint0_linear_3151_7109)"/>
<path d="M9.08374 16.0045L9.28033 17.2737C9.32524 17.5636 9.51217 17.8075 9.78039 17.9261C9.89198 17.9755 10.0101 17.9999 10.1276 17.9999C10.2927 17.9999 10.4567 17.9518 10.5996 17.8573L13.0175 16.2587C13.3401 16.0453 13.5423 15.7018 13.572 15.3161L13.6791 13.9299C12.2311 14.9969 10.6594 15.7076 9.08374 16.0045Z" fill="url(#paint1_linear_3151_7109)"/>
<path d="M8.60644 15.1249C8.6505 15.1249 8.69481 15.1212 8.73903 15.1139C9.39915 15.0035 10.0354 14.8176 10.6423 14.5742L5.42581 9.35767C5.18243 9.96457 4.9965 10.6008 4.88612 11.261C4.84262 11.5212 4.9299 11.7863 5.11643 11.9728L8.02716 14.8836C8.18203 15.0384 8.39106 15.1249 8.60644 15.1249Z" fill="url(#paint2_linear_3151_7109)"/>
<path d="M16.7241 9.09379C18.0007 6.62587 18.0479 4.01789 17.9812 2.79478C17.9584 2.37568 17.6243 2.04156 17.2051 2.01872C17.006 2.00784 16.77 2 16.5039 2C15.1362 2 12.9722 2.20715 10.9061 3.2758C9.2642 4.12508 7.11118 5.99509 5.84094 8.45264C5.85594 8.46436 5.8706 8.47679 5.88441 8.49061L11.5094 14.1156C11.5232 14.1294 11.5356 14.144 11.5473 14.159C14.0048 12.8887 15.8749 10.7357 16.7241 9.09379ZM11.3029 5.38247C12.2167 4.4687 13.7036 4.46861 14.6174 5.38247C15.0601 5.82513 15.3039 6.41372 15.3039 7.03974C15.3039 7.66577 15.0601 8.25436 14.6174 8.69701C14.1606 9.15385 13.5603 9.38232 12.9602 9.38238C12.3599 9.38241 11.7599 9.15397 11.3029 8.69701C10.8602 8.25436 10.6164 7.66577 10.6164 7.03974C10.6164 6.41372 10.8602 5.82513 11.3029 5.38247Z" fill="url(#paint3_linear_3151_7109)"/>
<path d="M11.966 8.03421C12.5142 8.5825 13.4064 8.58253 13.9547 8.03421C14.2203 7.76859 14.3666 7.41546 14.3666 7.03984C14.3666 6.66421 14.2203 6.31109 13.9547 6.0455C13.6806 5.77134 13.3205 5.63428 12.9603 5.63428C12.6002 5.63428 12.2401 5.77134 11.966 6.0455C11.7004 6.31109 11.5541 6.66421 11.5541 7.03984C11.5541 7.41546 11.7004 7.76862 11.966 8.03421Z" fill="url(#paint4_linear_3151_7109)"/>
<path d="M2.47829 15.1855C2.59826 15.1855 2.71822 15.1397 2.80972 15.0481L4.34013 13.5177C4.52319 13.3347 4.52319 13.0379 4.34013 12.8548C4.1571 12.6718 3.86029 12.6718 3.67722 12.8548L2.14682 14.3852C1.96376 14.5683 1.96376 14.8651 2.14682 15.0481C2.23835 15.1397 2.35832 15.1855 2.47829 15.1855Z" fill="url(#paint5_linear_3151_7109)"/>
<path d="M5.74267 14.2574C5.55964 14.0744 5.26283 14.0744 5.07976 14.2574L2.13742 17.1998C1.95436 17.3828 1.95436 17.6796 2.13742 17.8627C2.22895 17.9542 2.34892 17.9999 2.46889 17.9999C2.58886 17.9999 2.70883 17.9542 2.80033 17.8626L5.74264 14.9203C5.92573 14.7373 5.92573 14.4405 5.74267 14.2574Z" fill="url(#paint6_linear_3151_7109)"/>
<path d="M6.48225 15.66L4.95187 17.1904C4.76881 17.3735 4.76881 17.6703 4.95187 17.8533C5.0434 17.9448 5.16337 17.9906 5.28331 17.9906C5.40325 17.9906 5.52325 17.9449 5.61475 17.8533L7.14515 16.3229C7.32822 16.1398 7.32822 15.8431 7.14515 15.66C6.96212 15.4769 6.66531 15.4769 6.48225 15.66Z" fill="url(#paint7_linear_3151_7109)"/>
</g>
<defs>
<linearGradient id="paint0_linear_3151_7109" x1="5.95024" y1="7.01831" x2="1.80098" y2="7.29649" gradientUnits="userSpaceOnUse">
<stop stop-color="#D6BC9E"/>
<stop offset="0.494792" stop-color="#FFEEC0"/>
<stop offset="0.994792" stop-color="#D6BC9E"/>
</linearGradient>
<linearGradient id="paint1_linear_3151_7109" x1="13.544" y1="14.5477" x2="8.87209" y2="14.947" gradientUnits="userSpaceOnUse">
<stop stop-color="#D6BC9E"/>
<stop offset="0.494792" stop-color="#FFEEC0"/>
<stop offset="0.994792" stop-color="#D6BC9E"/>
</linearGradient>
<linearGradient id="paint2_linear_3151_7109" x1="10.4727" y1="10.233" x2="4.60032" y2="10.6776" gradientUnits="userSpaceOnUse">
<stop stop-color="#D6BC9E"/>
<stop offset="0.494792" stop-color="#FFEEC0"/>
<stop offset="0.994792" stop-color="#D6BC9E"/>
</linearGradient>
<linearGradient id="paint3_linear_3151_7109" x1="17.6423" y1="3.84556" x2="5.26158" y2="4.78276" gradientUnits="userSpaceOnUse">
<stop stop-color="#D6BC9E"/>
<stop offset="0.494792" stop-color="#FFEEC0"/>
<stop offset="0.994792" stop-color="#D6BC9E"/>
</linearGradient>
<linearGradient id="paint4_linear_3151_7109" x1="14.2839" y1="6.06097" x2="11.4201" y2="6.27786" gradientUnits="userSpaceOnUse">
<stop stop-color="#D6BC9E"/>
<stop offset="0.494792" stop-color="#FFEEC0"/>
<stop offset="0.994792" stop-color="#D6BC9E"/>
</linearGradient>
<linearGradient id="paint5_linear_3151_7109" x1="4.40484" y1="13.0921" x2="1.89193" y2="13.2823" gradientUnits="userSpaceOnUse">
<stop stop-color="#D6BC9E"/>
<stop offset="0.494792" stop-color="#FFEEC0"/>
<stop offset="0.994792" stop-color="#D6BC9E"/>
</linearGradient>
<linearGradient id="paint6_linear_3151_7109" x1="5.76585" y1="14.709" x2="1.81525" y2="15.0081" gradientUnits="userSpaceOnUse">
<stop stop-color="#D6BC9E"/>
<stop offset="0.494792" stop-color="#FFEEC0"/>
<stop offset="0.994792" stop-color="#D6BC9E"/>
</linearGradient>
<linearGradient id="paint7_linear_3151_7109" x1="7.20987" y1="15.8973" x2="4.69698" y2="16.0875" gradientUnits="userSpaceOnUse">
<stop stop-color="#D6BC9E"/>
<stop offset="0.494792" stop-color="#FFEEC0"/>
<stop offset="0.994792" stop-color="#D6BC9E"/>
</linearGradient>
<clipPath id="clip0_3151_7109">
<rect width="16" height="16" fill="white" transform="translate(2 2)"/>
</clipPath>
</defs>
</svg>
