<svg width="20" height="20" viewBox="0 0 20 20" fill="none" xmlns="http://www.w3.org/2000/svg">
  <path fill-rule="evenodd" clip-rule="evenodd" d="M9.6834 2.70488L5.01673 3.84562C4.41987 3.99152 4 4.52639 4 5.14082V10.8088C4 13.0526 5.27827 15.1004 7.29407 16.0859L9.7072 17.2657C9.7996 17.3108 9.8998 17.3334 10 17.3334C10.1002 17.3334 10.2004 17.3108 10.2928 17.2657L12.7059 16.0859C14.7217 15.1004 16 13.0526 16 10.8088V5.14082C16 4.52639 15.5801 3.99152 14.9833 3.84562L10.3166 2.70488C10.2126 2.67946 10.1063 2.66675 10 2.66675C9.89367 2.66675 9.7874 2.67946 9.6834 2.70488ZM13.1381 8.47149C13.3984 8.21114 13.3984 7.78903 13.1381 7.52868C12.8777 7.26833 12.4556 7.26833 12.1953 7.52867L9.33333 10.3905L7.80473 8.86201C7.54438 8.60166 7.12227 8.60166 6.86193 8.86201C6.60158 9.12235 6.60158 9.54448 6.86193 9.80481L8.86193 11.8048C9.12227 12.0651 9.5444 12.0651 9.80473 11.8048L13.1381 8.47149Z" fill="white"/>
</svg>
