<svg width="20" height="20" viewBox="0 0 20 20" fill="none" xmlns="http://www.w3.org/2000/svg">
<path d="M4.90909 8.54539H15.0908C15.2877 8.54539 15.4582 8.47347 15.6021 8.3295C15.7459 8.18558 15.8181 8.01515 15.8181 7.81818C15.8181 7.6212 15.746 7.45085 15.6021 7.30673L10.5113 2.21588C10.3674 2.07212 10.197 2 9.99994 2C9.80285 2 9.63246 2.07212 9.4885 2.21588L4.39764 7.30673C4.25368 7.45069 4.18176 7.6212 4.18176 7.81818C4.18176 8.01511 4.25368 8.18558 4.39764 8.3295C4.54176 8.47347 4.71215 8.54539 4.90909 8.54539Z" fill="#A6A6A6"/>
<path d="M15.0908 11.4548H4.90909C4.71199 11.4548 4.54161 11.5268 4.39764 11.6706C4.25368 11.8146 4.18176 11.9849 4.18176 12.1819C4.18176 12.3789 4.25368 12.5494 4.39764 12.6933L9.4885 17.7841C9.63262 17.928 9.803 18.0001 9.99994 18.0001C10.1969 18.0001 10.3674 17.928 10.5113 17.7841L15.6021 12.6932C15.7459 12.5494 15.8181 12.3789 15.8181 12.1819C15.8181 11.9849 15.746 11.8146 15.6021 11.6706C15.4583 11.5266 15.2877 11.4548 15.0908 11.4548Z" fill="#A6A6A6"/>
</svg>
