<svg width="20" height="20" viewBox="0 0 20 20" fill="none" xmlns="http://www.w3.org/2000/svg">
<path d="M15.1468 6.95071C17.0633 6.28212 18.2584 4.70226 18.2584 4.70226C18.2584 4.70226 16.8252 4.33217 15.1975 4.66586L15.2604 2L13.7571 4.25815L14.2211 4.26058L14.29 4.92674C12.4544 5.62081 11.3173 7.12422 11.3173 7.12422C11.3173 7.12422 12.8315 7.51494 14.516 7.13029L14.8422 10.3046C13.7595 10.9586 12.2732 11.5689 10.2443 11.9402V18L17.2385 10.6565L17.5986 7.38632C17.5986 7.38632 17.1298 8.83877 15.067 10.1662L15.1431 6.95313C15.1431 6.95313 15.1456 6.95313 15.1468 6.95313V6.95071Z" fill="white"/>
<path d="M4.85334 6.95071C2.93681 6.28212 1.7417 4.70226 1.7417 4.70226C1.7417 4.70226 3.17487 4.33217 4.80259 4.66586L4.73975 2L6.24301 4.25815L5.77898 4.26058L5.7101 4.92674C7.54567 5.62081 8.68278 7.12422 8.68278 7.12422C8.68278 7.12422 7.16865 7.51494 5.48413 7.13029L5.15786 10.3046C6.24059 10.9586 7.72693 11.5689 9.75585 11.9402V18L2.76159 10.6565L2.40149 7.38632C2.40149 7.38632 2.87035 8.83877 4.9331 10.1662L4.85697 6.95313C4.85697 6.95313 4.85455 6.95313 4.85334 6.95313V6.95071Z" fill="white"/>
</svg>
