<svg width="20" height="20" viewBox="0 0 20 20" fill="none" xmlns="http://www.w3.org/2000/svg">
<path d="M14.8775 12.4075C14.4797 15.3556 11.7672 17.4235 8.81905 17.0256C5.87092 16.6278 3.80342 13.9156 4.20123 10.9672C4.50248 8.73376 6.13217 7.00595 8.18623 6.4722C8.84373 6.30126 9.54467 6.25282 10.2594 6.34939C10.974 6.44595 11.6372 6.67845 12.226 7.01751C14.0653 8.07626 15.1787 10.1741 14.8775 12.4075Z" fill="#A6A6A6"/>
<path d="M12.5097 4.91406L12.2979 6.48406C11.6916 6.16281 11.0266 5.94812 10.3263 5.85374C10.0631 5.81843 9.7963 5.80031 9.53255 5.80031C9.1013 5.80031 8.67412 5.84812 8.25818 5.94093L8.47005 4.36937C8.4813 4.28406 8.56068 4.22374 8.64568 4.23531L10.2632 4.45343L10.7666 4.52124L12.3756 4.73843C12.461 4.74999 12.521 4.82906 12.5097 4.91406Z" fill="#A6A6A6"/>
<path d="M14.4344 3.34317C14.3862 3.47254 14.2422 3.53817 14.1128 3.49004C13.3681 3.21192 12.5925 3.20692 11.9294 3.47567C11.5887 3.61379 11.2928 3.81754 11.0728 4.05817L10.4978 3.98067C10.7787 3.57098 11.2191 3.22379 11.7416 3.01223C12.5212 2.69661 13.4256 2.69973 14.2878 3.0216C14.4169 3.06973 14.4828 3.21379 14.4344 3.34317Z" fill="#A6A6A6"/>
<path d="M15.2034 3.54161C15.1227 3.54161 15.0434 3.50258 14.9953 3.43046C14.9186 3.31564 14.9495 3.16039 15.0643 3.08371L15.6126 2.71746C15.7275 2.64071 15.8827 2.67168 15.9594 2.78646C16.036 2.90127 16.0051 3.05652 15.8903 3.13321L15.342 3.49946C15.2993 3.52796 15.2511 3.54161 15.2034 3.54161Z" fill="#A6A6A6"/>
<path d="M14.2516 5.09622C14.2278 5.09622 14.2036 5.09279 14.1796 5.0856C14.0473 5.04585 13.9723 4.90644 14.0121 4.77422L14.2019 4.14269C14.2417 4.01047 14.3811 3.93554 14.5133 3.97522C14.6455 4.01497 14.7205 4.15438 14.6808 4.2866L14.4909 4.91813C14.4584 5.02635 14.3591 5.09622 14.2516 5.09622Z" fill="#A6A6A6"/>
<path d="M15.8477 4.82706C15.7925 4.82706 15.737 4.80884 15.6907 4.77143L15.178 4.35675C15.0707 4.2699 15.054 4.1125 15.1409 4.00515C15.2276 3.89781 15.385 3.88115 15.4925 3.96796L16.0051 4.38265C16.1125 4.4695 16.1291 4.6269 16.0423 4.73425C15.9929 4.79534 15.9206 4.82706 15.8477 4.82706Z" fill="#A6A6A6"/>
</svg>
