<svg width="20" height="20" viewBox="0 0 20 20" fill="none" xmlns="http://www.w3.org/2000/svg">
<path d="M14.7885 7.0684L16.3464 4.57523C16.4062 4.4798 16.4344 4.36957 16.4344 4.25654V2.59301C16.4344 2.26094 16.1721 2 15.8396 2H14.2571C13.925 2 13.6447 2.26094 13.6447 2.59301V3.48605C13.6447 3.62233 13.5458 3.73677 13.4095 3.73677H11.8136C11.6773 3.73677 11.5657 3.62233 11.5657 3.48605V2.59301C11.5657 2.26094 11.2977 2 10.9653 2H9.03411C8.70204 2 8.43371 2.26094 8.43371 2.59301V3.48605C8.43371 3.62233 8.32243 3.73677 8.18615 3.73677H6.59024C6.45396 3.73677 6.35465 3.62233 6.35465 3.48605V2.59301C6.355 2.26094 6.07505 2 5.74263 2H4.16009C3.82802 2 3.56567 2.26094 3.56567 2.59301V4.25654C3.56567 4.36922 3.59385 4.4798 3.65371 4.57523L5.21124 7.0684C5.27111 7.16383 5.30245 7.27406 5.30245 7.38674V14.1856C5.30245 14.3969 5.19011 14.5923 5.00911 14.7011L3.85478 15.3952C3.67378 15.504 3.56567 15.6994 3.56567 15.9111V17.4063C3.56567 17.7387 3.82767 18 4.16009 18H15.8396C16.1714 18 16.4341 17.7391 16.4341 17.4063V15.9111C16.4341 15.6994 16.3267 15.504 16.146 15.3952L14.9885 14.7015C14.8075 14.5923 14.6969 14.3972 14.6969 14.1859V7.38674C14.6973 7.27441 14.7286 7.16383 14.7885 7.0684ZM11.5653 10.6015C11.5653 10.8462 11.3681 11.0526 11.1234 11.0526H8.87635C8.63161 11.0526 8.43406 10.8462 8.43406 10.6015V8.67066C8.43406 7.81953 9.12321 7.13214 9.97434 7.13214H10.0254C10.8769 7.13214 11.5653 7.81953 11.5653 8.67066V10.6015Z" fill="#A6A6A6"/>
</svg>
