<svg xmlns="http://www.w3.org/2000/svg" viewBox="0 0 420 320" role="img" aria-labelledby="title desc">
  <title id="title">Stylised fisherman character</title>
  <desc id="desc">A warm 3D-inspired fisherman character holding a fishing rod.</desc>
  <defs>
    <linearGradient id="skin" x1="0" x2="1" y1="0" y2="1">
      <stop offset="0" stop-color="#ffd8a3"/>
      <stop offset="1" stop-color="#b96a42"/>
    </linearGradient>
    <linearGradient id="shirt" x1="0" x2="1" y1="0" y2="1">
      <stop offset="0" stop-color="#f28d68"/>
      <stop offset="1" stop-color="#9e3d2f"/>
    </linearGradient>
    <linearGradient id="hat" x1="0" x2="1" y1="0" y2="1">
      <stop offset="0" stop-color="#fff2bf"/>
      <stop offset="0.48" stop-color="#d8ad62"/>
      <stop offset="1" stop-color="#80562d"/>
    </linearGradient>
    <linearGradient id="beard" x1="0" x2="1" y1="0" y2="1">
      <stop offset="0" stop-color="#7a3e22"/>
      <stop offset="1" stop-color="#2a1209"/>
    </linearGradient>
    <filter id="softShadow" x="-30%" y="-30%" width="160%" height="170%">
      <feDropShadow dx="0" dy="14" stdDeviation="16" flood-color="#000" flood-opacity="0.38"/>
    </filter>
  </defs>
  <g filter="url(#softShadow)">
    <path fill="#7b3f26" d="M259 61c38-26 94-18 114 10 10 14 4 31-13 39-30 14-96 8-132-10-21-11-9-26 31-39Z" opacity=".96"/>
    <path fill="url(#hat)" d="M199 76c24-43 93-50 132-20 9 7 4 20-10 23-16 4-36 1-50-3-23 17-52 22-85 12-6-2 5-7 13-12Z"/>
    <path fill="#f8e1a5" d="M246 39c15-24 66-19 78 7 3 7-2 15-10 17-21 6-55 4-72-9-5-4-1-9 4-15Z"/>
    <path fill="#2a1209" d="M230 91c9-29 45-45 78-34 29 9 45 35 38 63-9 33-44 52-77 44-31-8-48-39-39-73Z"/>
    <path fill="url(#skin)" d="M240 92c8-25 38-38 65-29 24 8 38 30 32 54-7 27-36 42-63 35-26-7-41-34-34-60Z"/>
    <path fill="url(#beard)" d="M227 112c16 27 38 39 69 38 23-1 40-10 50-27 0 31-19 66-57 72-40 6-66-23-62-83Z"/>
    <path fill="#fff4db" d="M268 131c12 7 33 8 48 1-7 12-34 19-48-1Z"/>
    <circle cx="268" cy="99" r="7" fill="#101010"/>
    <circle cx="313" cy="97" r="7" fill="#101010"/>
    <circle cx="270" cy="96" r="2" fill="#fff"/>
    <circle cx="315" cy="94" r="2" fill="#fff"/>
    <path fill="#6b321c" d="M254 82c9-8 21-10 32-5-15 2-24 7-32 15v-10Zm44-7c13-5 26-3 36 7l-2 10c-10-9-20-14-34-17Z"/>
    <path fill="#a14d29" d="M292 101c7 9 8 21-5 24 11-8 7-16 5-24Z"/>
    <path fill="url(#shirt)" d="M173 232c5-56 45-90 98-91 56-1 94 32 101 89l-24 56H196l-23-54Z"/>
    <path fill="#ffd9a0" d="M226 176c-9 24-15 57-10 87h68c-2-33-12-62-28-91l-30 4Z" opacity=".35"/>
    <path fill="#311209" d="M248 160c15 10 39 11 57 0-8 18-44 25-57 0Z" opacity=".36"/>
    <path fill="#efc77a" d="M198 205c17 11 35 13 52 6 8 9 4 25-10 31-23 10-48-5-57-24-4-9 5-19 15-13Z"/>
    <path fill="url(#skin)" d="M318 183c30 2 56 21 65 49 5 14-8 26-22 20-28-13-48-35-55-59-2-7 4-11 12-10Z"/>
    <path fill="url(#skin)" d="M210 185c20 9 36 28 38 50 1 10-10 17-20 11-22-13-38-35-42-55-2-8 12-11 24-6Z"/>
    <path fill="#3a1b0f" d="M357 44c5 72 9 144 10 216" stroke="#a97b4e" stroke-width="5" stroke-linecap="round"/>
    <path d="M361 52c-38 42-43 92-13 128" fill="none" stroke="#ffdca4" stroke-width="2" stroke-linecap="round" opacity=".8"/>
    <circle cx="211" cy="221" r="25" fill="#d7a35d"/>
    <circle cx="211" cy="221" r="17" fill="#5b331c"/>
    <circle cx="211" cy="221" r="9" fill="#f5c877"/>
    <path fill="#d8a35a" d="M189 207h-33c-8 0-15 6-15 14s7 14 15 14h33c-6-8-6-20 0-28Z"/>
    <path fill="#fff1bc" d="M174 213h-19c-5 0-8 3-8 8s3 8 8 8h19c-3-5-3-11 0-16Z" opacity=".75"/>
  </g>
</svg>
